<svg xmlns="http://www.w3.org/2000/svg" viewBox="0 0 141.52 83.45">
    <defs>
        <style>.cls-1{fill:#ffffff;}</style>
    </defs>
    <g id="Réteg_2" data-name="Réteg 2">
        <g id="Réteg_1" data-name="Réteg 1">
            <path class="cls-1"
                  d="M40.92,1.61A40.92,40.92,0,1,0,81.83,42.53,40.92,40.92,0,0,0,40.92,1.61Zm27.83,69.2a38.2,38.2,0,1,1,0-56.56,39.67,39.67,0,0,1,0,56.56Z"/>
            <path class="cls-1"
                  d="M19.11,49.57H29.94V53.9H19.11a10.46,10.46,0,0,1-7.66-3.16,10.88,10.88,0,0,1,0-15.33,10.42,10.42,0,0,1,7.66-3.16H29.94v4.33H19.11a6.51,6.51,0,0,0-4.6,11.09A6.26,6.26,0,0,0,19.11,49.57Z"/>
            <path class="cls-1"
                  d="M47.8,53.9l-7.14-13h7.58a2.18,2.18,0,0,0,1.54-3.71,2.12,2.12,0,0,0-1.54-.62H37.42V53.9H33.09V32.25H48.24a6.5,6.5,0,0,1,4.6,11.09,6.23,6.23,0,0,1-4.6,1.9H47.3l4.8,8.66Z"/>
            <path class="cls-1" d="M78.62,32.25v4.33H61.3v13H78.62V53.9H57V32.25Zm0,13H66.71V40.91H78.62Z"/>
            <path class="cls-1" d="M79.71,53.9,90.53,31.16,101.36,53.9H96.49l-6-12.45-6,12.45Z"/>
            <path class="cls-1" d="M108.8,36.58V53.9h-4.33V36.58H95.81V32.25h21.65v4.33Z"/>
            <path class="cls-1" d="M141.52,32.25v4.33H124.19v13h17.33V53.9H119.86V32.25Zm0,13H129.61V40.91h11.91Z"/>
            <polygon class="cls-1"
                     points="65.2 10.72 73.88 9.63 65.47 8.97 68.04 5.65 64.64 8.55 63.56 0 62.89 8.51 59.58 5.94 62.16 8.96 53.74 9.63 62.45 10.73 59.49 14.2 62.89 11.57 63.56 20.14 64.65 11.53 68.13 14.49 65.2 10.72"/>
        </g>
    </g>
</svg>